# xmcd
#
# Track frame offsets:
#	150
#	19706
#	33600
#	51766
#	65345
#	77972
#	97588
#	111557
#	127708
#	141981
#	156700
#	170234
#	186418
#	203334
#	213937
#	230393
#	243857
#	261189
#	276525
#	289397
#	305370
#
# Disc length: 4262 seconds
#
# Revision: 0
# Processed by: cddbd v1.5.2PL0 Copyright (c) Steve Scherf et al.
# Submitted via: dBpowerAMP V4.0
#
DISCID=3910a415
DTITLE=Various Artist - ERG Nu Country Traxx Vol. 242 CAN
DYEAR=2014
DGENRE=Country
TTITLE0=Luke Bryan - Roller Coaster
TTITLE1=Kenny Chesney - American Kids
TTITLE2=Paul Brandt - Forever Summer
TTITLE3=Rascal Flatts - PaybackRascal Flatts
TTITLE4=Chad Brownlee - Just Because
TTITLE5=John Legend ft. Jennifer Nettles and Hunter Hayes - All Of Me
TTITLE6=Small Town Pistols - I Only Smoke When I Drink
TTITLE7=Rae Lynn - God Made Girls
TTITLE8=Joey Hyde - Get It On
TTITLE9=Dallas Smith - A Girl Like You
TTITLE10=Craig Morgan - We'll Come Back Around
TTITLE11=Brett Kissel - Tough People Do
TTITLE12=Colt Ford - Workin On'
TTITLE13=Dylan Scott - Mmm, Mmm, Mmm
TTITLE14=Florida Georgia Line - Dirt
TTITLE15=Dean Alexander - Live A Little
TTITLE16=Brett Eldredge - Mean To Me
TTITLE17=Canaan Smith  - Love You Like That
TTITLE18=Kristian Bush - Trailer Hitch
TTITLE19=Chase Bryant - Take It On Back
TTITLE20=American Young - Wasn't Gonna Drink Tonight
EXTD=
EXTT0=
EXTT1=
EXTT2=
EXTT3=
EXTT4=
EXTT5=
EXTT6=
EXTT7=
EXTT8=
EXTT9=
EXTT10=
EXTT11=
EXTT12=
EXTT13=
EXTT14=
EXTT15=
EXTT16=
EXTT17=
EXTT18=
EXTT19=
EXTT20=
PLAYORDER=
